<svg xmlns="http://www.w3.org/2000/svg" data-name="Layer 1" viewBox="0 0 64 80" x="0px" y="0px"><title>Coronavirus</title><path d="M33,12.03V8.816a3,3,0,1,0-2,0V12.03c.33-.02.67-.03,1-.03S32.67,12.01,33,12.03Z"/><path d="M18.58,17.17,16.321,14.9a2.957,2.957,0,0,0,.294-1.273,3,3,0,1,0-3,3,2.95,2.95,0,0,0,1.292-.3L17.17,18.58A18.757,18.757,0,0,1,18.58,17.17Z"/><path d="M12.03,31H8.816a3,3,0,1,0,0,2H12.03c-.02-.33-.03-.67-.03-1S12.01,31.33,12.03,31Z"/><path d="M17.17,45.42l-2.281,2.273a3.035,3.035,0,1,0,1.422,1.414L18.58,46.83A18.757,18.757,0,0,1,17.17,45.42Z"/><path d="M31,51.97v3.214a3,3,0,1,0,2,0V51.97c-.33.02-.67.03-1,.03S31.33,51.99,31,51.97Z"/><path d="M45.42,46.83l2.269,2.277a2.97,2.97,0,0,0-.3,1.292,3.028,3.028,0,1,0,1.726-2.706L46.83,45.42A18.757,18.757,0,0,1,45.42,46.83Z"/><path d="M58,29a3,3,0,0,0-2.816,2H51.97c.02.33.03.67.03,1s-.01.67-.03,1h3.214A2.995,2.995,0,1,0,58,29Z"/><path d="M46.83,18.58l2.263-2.255a2.95,2.95,0,0,0,1.292.3,3,3,0,1,0-3-3,2.957,2.957,0,0,0,.294,1.273L45.42,17.17A18.757,18.757,0,0,1,46.83,18.58Z"/><path d="M48,31h3.97a19.92,19.92,0,0,0-5.14-12.42l-2.81,2.81-1.41-1.41,2.81-2.81A19.92,19.92,0,0,0,33,12.03V16H31V12.03a19.92,19.92,0,0,0-12.42,5.14l2.81,2.81-1.41,1.41-2.81-2.81A19.92,19.92,0,0,0,12.03,31H16v2H12.03a19.92,19.92,0,0,0,5.14,12.42l2.81-2.81,1.41,1.41-2.81,2.81A19.92,19.92,0,0,0,31,51.97V48h2v3.97a19.92,19.92,0,0,0,12.42-5.14l-2.81-2.81,1.41-1.41,2.81,2.81A19.92,19.92,0,0,0,51.97,33H48Zm-8.34-5.732A2,2,0,1,1,38.928,28,2,2,0,0,1,39.66,25.268ZM35.268,22.34A2,2,0,1,1,36,25.072,2,2,0,0,1,35.268,22.34ZM21.608,26a2,2,0,1,1,.732,2.732A2,2,0,0,1,21.608,26ZM20,32a2,2,0,1,1,2,2A2,2,0,0,1,20,32Zm4.34,6.732A2,2,0,1,1,25.072,36,2,2,0,0,1,24.34,38.732Zm4.392,2.928A2,2,0,1,1,28,38.928,2,2,0,0,1,28.732,41.66ZM28,25.072a2,2,0,1,1,.732-2.732A2,2,0,0,1,28,25.072ZM32,44a2,2,0,1,1,2-2A2,2,0,0,1,32,44Zm0-20a2,2,0,1,1,2-2A2,2,0,0,1,32,24Zm6,18.392a2,2,0,1,1,.732-2.732A2,2,0,0,1,38,42.392ZM42.392,38a2,2,0,1,1-.732-2.732A2,2,0,0,1,42.392,38ZM42,34a2,2,0,1,1,2-2A2,2,0,0,1,42,34Z"/><path d="M26.824,12.681a2,2,0,1,0-2.45-1.414A2,2,0,0,0,26.824,12.681Z"/><path d="M22,14.68a2,2,0,1,0-2.732-.733A2,2,0,0,0,22,14.68Z"/><path d="M11.947,22.732A2,2,0,1,0,11.215,20,2,2,0,0,0,11.947,22.732Z"/><path d="M10.232,28.238a2,2,0,1,0-1.414-2.45A2,2,0,0,0,10.232,28.238Z"/><path d="M11.267,39.626a2,2,0,1,0-2.449-1.414A2,2,0,0,0,11.267,39.626Z"/><path d="M11.215,44a2,2,0,1,0,.732-2.732A2,2,0,0,0,11.215,44Z"/><path d="M22,49.32a2,2,0,1,0,.732,2.733A2,2,0,0,0,22,49.32Z"/><path d="M26.824,51.318a2,2,0,1,0,1.414,2.45A2,2,0,0,0,26.824,51.318Z"/><path d="M37.176,51.318a2,2,0,1,0,2.45,1.415A2,2,0,0,0,37.176,51.318Z"/><path d="M42,49.32a2,2,0,1,0,2.732.733A2,2,0,0,0,42,49.32Z"/><path d="M52.053,41.268A2,2,0,1,0,52.785,44,2,2,0,0,0,52.053,41.268Z"/><path d="M53.768,35.762a2,2,0,1,0,1.414,2.45A2,2,0,0,0,53.768,35.762Z"/><path d="M52.733,24.374a2,2,0,1,0,2.449,1.414A2,2,0,0,0,52.733,24.374Z"/><path d="M52.785,20a2,2,0,1,0-.732,2.732A2,2,0,0,0,52.785,20Z"/><path d="M42,14.68a2,2,0,1,0-.732-2.733A2,2,0,0,0,42,14.68Z"/><path d="M37.176,12.681a2,2,0,1,0-1.414-2.449A2,2,0,0,0,37.176,12.681Z"/><text x="0" y="79" fill="#000000" font-size="5px" font-weight="bold" font-family="'Helvetica Neue', Helvetica, Arial-Unicode, Arial, Sans-serif">Created by JunGSa</text><text x="0" y="84" fill="#000000" font-size="5px" font-weight="bold" font-family="'Helvetica Neue', Helvetica, Arial-Unicode, Arial, Sans-serif">from the Noun Project</text></svg>