<svg xmlns="http://www.w3.org/2000/svg" xmlns:xlink="http://www.w3.org/1999/xlink" xml:space="preserve" version="1.1" style="shape-rendering:geometricPrecision;text-rendering:geometricPrecision;image-rendering:optimizeQuality;" viewBox="0 0 3.315 4.0024999999999995" x="0px" y="0px" fill-rule="evenodd" clip-rule="evenodd"><defs><style type="text/css">
   
    .fil0 {fill:black}
   
  </style></defs><g><path class="fil0" d="M0.805 2.364c-0.118,0.108 -0.234,0.529 -0.503,0.295 -0.18,-0.156 -0.069,-0.349 0.189,-0.398 0.284,-0.053 0.11,-0.606 0.076,-0.837 -0.055,-0.37 -0.542,0.023 -0.567,-0.374 -0.011,-0.19 0.224,-0.396 0.467,-0.08 0.17,0.222 0.401,-0.112 0.499,-0.246 0.178,-0.247 -0.504,-0.308 -0.217,-0.639 0.129,-0.148 0.414,-0.125 0.389,0.25 -0.016,0.257 0.39,0.172 0.527,0.181 0.361,0.023 0.596,0.226 0.638,-0.138 0.056,-0.492 0.777,0.038 0.345,0.221 -0.402,0.17 -0.115,0.219 0.028,0.59 0.15,0.39 -0.027,0.684 0.346,0.613 0.548,-0.103 0.229,0.788 -0.155,0.301 -0.179,-0.228 -0.396,0.158 -0.554,0.314 -0.342,0.336 0.343,0.383 0.065,0.701 -0.138,0.158 -0.382,0.098 -0.376,-0.231 0.006,-0.311 -0.656,-0.254 -1.076,-0.515 -0.058,-0.037 -0.065,-0.051 -0.121,-0.008zm1.182 -1.2c0.014,0.015 0.022,0.034 0.022,0.056 0,0.044 -0.036,0.08 -0.08,0.08 -0.044,0 -0.08,-0.036 -0.08,-0.08 0,-0.006 0,-0.012 0.002,-0.018 -0.035,0.006 -0.069,0.009 -0.101,0.009 -0.01,0 -0.019,0.004 -0.024,0.013 -0.005,0.008 -0.006,0.018 -0.002,0.027 0.044,0.096 0.141,0.163 0.254,0.163 0.153,0 0.278,-0.125 0.278,-0.278 0,-0.031 -0.005,-0.06 -0.014,-0.088 -0.004,-0.009 -0.011,-0.016 -0.021,-0.018 -0.009,-0.003 -0.019,0 -0.026,0.007 -0.051,0.05 -0.123,0.095 -0.208,0.127zm-0.606 0.019c0,0.004 0.001,0.008 0.001,0.013 0,0.044 -0.036,0.08 -0.081,0.08 -0.044,0 -0.08,-0.036 -0.08,-0.08 0,-0.022 0.009,-0.042 0.023,-0.057 -0.071,-0.031 -0.132,-0.071 -0.177,-0.115 -0.007,-0.007 -0.017,-0.01 -0.026,-0.007 -0.01,0.002 -0.017,0.009 -0.021,0.018 -0.009,0.028 -0.014,0.057 -0.014,0.088 0,0.154 0.125,0.278 0.278,0.278 0.113,0 0.21,-0.067 0.254,-0.163 0.004,-0.009 0.003,-0.019 -0.002,-0.027 -0.005,-0.008 -0.014,-0.013 -0.024,-0.013 -0.041,0 -0.086,-0.005 -0.131,-0.015zm0.534 0.735c-0.007,-0.106 -0.073,-0.203 -0.178,-0.244 -0.143,-0.055 -0.304,0.016 -0.36,0.16 -0.011,0.028 -0.017,0.058 -0.018,0.087 -0.001,0.01 0.004,0.018 0.012,0.024 0.008,0.006 0.018,0.007 0.027,0.003 0.073,-0.032 0.169,-0.048 0.272,-0.044 0.076,0.004 0.146,0.019 0.206,0.042 0.009,0.003 0.019,0.002 0.027,-0.004 0.008,-0.006 0.012,-0.014 0.012,-0.024z"/></g><text x="0" y="18.201999999999998" fill="#000000" font-size="5px" font-weight="bold" font-family="'Helvetica Neue', Helvetica, Arial-Unicode, Arial, Sans-serif">Created by popcornarts</text><text x="0" y="23.201999999999998" fill="#000000" font-size="5px" font-weight="bold" font-family="'Helvetica Neue', Helvetica, Arial-Unicode, Arial, Sans-serif">from the Noun Project</text></svg>