<svg xmlns="http://www.w3.org/2000/svg" width="94.07" height="94.089" viewBox="0 0 94.07 94.089">
  <g id="noun_coronavirus_3177964" transform="translate(-2.988 -2.988)">
    <path id="Path_7" data-name="Path 7" d="M35.486,17.65V12.439a4.865,4.865,0,1,0-3.243,0V17.65c.535-.032,1.086-.049,1.622-.049S34.951,17.618,35.486,17.65Z" transform="translate(16.167 0)" fill="#5b44ff"/>
    <path id="Path_8" data-name="Path 8" d="M23.53,21.237l-3.663-3.681a4.8,4.8,0,0,0,.477-2.064,4.865,4.865,0,1,0-4.865,4.865,4.784,4.784,0,0,0,2.1-.486l3.67,3.653a30.414,30.414,0,0,1,2.286-2.286Z" transform="translate(4.741 4.748)" fill="#5b44ff"/>
    <path id="Path_9" data-name="Path 9" d="M17.65,32.243H12.439a4.865,4.865,0,1,0,0,3.243H17.65c-.032-.535-.049-1.086-.049-1.622S17.618,32.778,17.65,32.243Z" transform="translate(0 16.167)" fill="#5b44ff"/>
    <path id="Path_10" data-name="Path 10" d="M21.288,45.42l-3.7,3.686A4.921,4.921,0,1,0,19.895,51.4l3.679-3.692a30.412,30.412,0,0,1-2.286-2.286Z" transform="translate(4.697 26.373)" fill="#5b44ff"/>
    <path id="Path_11" data-name="Path 11" d="M32.243,51.97v5.212a4.865,4.865,0,1,0,3.243,0V51.97c-.535.032-1.086.049-1.622.049S32.778,52,32.243,51.97Z" transform="translate(16.167 30.444)" fill="#5b44ff"/>
    <path id="Path_12" data-name="Path 12" d="M45.42,47.706,49.1,51.4a4.816,4.816,0,0,0-.486,2.1,4.91,4.91,0,1,0,2.8-4.388L47.706,45.42A30.41,30.41,0,0,1,45.42,47.706Z" transform="translate(26.373 26.373)" fill="#5b44ff"/>
    <path id="Path_13" data-name="Path 13" d="M61.748,29a4.865,4.865,0,0,0-4.566,3.243H51.97c.032.535.049,1.086.049,1.622S52,34.951,51.97,35.486h5.212A4.856,4.856,0,1,0,61.748,29Z" transform="translate(30.444 16.167)" fill="#5b44ff"/>
    <path id="Path_14" data-name="Path 14" d="M47.706,23.524l3.67-3.657a4.783,4.783,0,0,0,2.1.486,4.865,4.865,0,1,0-4.865-4.865,4.8,4.8,0,0,0,.477,2.064L45.42,21.238a30.411,30.411,0,0,1,2.286,2.286Z" transform="translate(26.373 4.747)" fill="#5b44ff"/>
    <path id="Path_15" data-name="Path 15" d="M70.356,42.79h6.437a32.3,32.3,0,0,0-8.335-20.139L63.9,27.208l-2.286-2.286,4.557-4.556A32.3,32.3,0,0,0,46.033,12.03v6.437H42.79V12.03a32.3,32.3,0,0,0-20.139,8.335l4.556,4.556-2.286,2.286-4.556-4.556A32.3,32.3,0,0,0,12.03,42.79h6.437v3.243H12.03a32.3,32.3,0,0,0,8.335,20.139l4.556-4.556L27.208,63.9l-4.556,4.556A32.3,32.3,0,0,0,42.79,76.794V70.356h3.243v6.437a32.3,32.3,0,0,0,20.139-8.335L61.616,63.9,63.9,61.616l4.556,4.557a32.3,32.3,0,0,0,8.335-20.139H70.356ZM56.833,33.5a3.243,3.243,0,1,1-1.187,4.43,3.243,3.243,0,0,1,1.187-4.43Zm-7.122-4.748a3.243,3.243,0,1,1,1.187,4.43,3.243,3.243,0,0,1-1.187-4.43Zm-22.15,5.935a3.243,3.243,0,1,1,1.187,4.43,3.243,3.243,0,0,1-1.187-4.43Zm-2.607,9.729A3.243,3.243,0,1,1,28.2,47.655,3.243,3.243,0,0,1,24.954,44.412Zm7.037,10.916a3.243,3.243,0,1,1,1.187-4.43A3.243,3.243,0,0,1,31.991,55.328Zm7.122,4.748a3.243,3.243,0,1,1-1.187-4.43A3.243,3.243,0,0,1,39.113,60.076Zm-1.187-26.9a3.243,3.243,0,1,1,1.187-4.43A3.243,3.243,0,0,1,37.926,33.178ZM44.412,63.87a3.243,3.243,0,1,1,3.243-3.243A3.243,3.243,0,0,1,44.412,63.87Zm0-32.431A3.243,3.243,0,1,1,47.655,28.2,3.243,3.243,0,0,1,44.412,31.44Zm9.729,29.823a3.243,3.243,0,1,1,1.187-4.43A3.243,3.243,0,0,1,54.141,61.263Zm7.122-7.122a3.243,3.243,0,1,1-1.187-4.43A3.243,3.243,0,0,1,61.263,54.141Zm-.636-6.486a3.243,3.243,0,1,1,3.243-3.243A3.243,3.243,0,0,1,60.627,47.655Z" transform="translate(5.62 5.62)" fill="#5b44ff"/>
    <path id="Path_16" data-name="Path 16" d="M28.389,15.125a3.243,3.243,0,1,0-3.973-2.293A3.243,3.243,0,0,0,28.389,15.125Z" transform="translate(13.25 3.581)" fill="#5b44ff"/>
    <path id="Path_17" data-name="Path 17" d="M23.865,17a3.243,3.243,0,1,0-4.43-1.189A3.243,3.243,0,0,0,23.865,17Z" transform="translate(9.952 4.947)" fill="#5b44ff"/>
    <path id="Path_18" data-name="Path 18" d="M12.569,25.052a3.243,3.243,0,1,0-1.187-4.43A3.243,3.243,0,0,0,12.569,25.052Z" transform="translate(4.947 9.952)" fill="#5b44ff"/>
    <path id="Path_19" data-name="Path 19" d="M11.154,30.682a3.243,3.243,0,1,0-2.293-3.973A3.243,3.243,0,0,0,11.154,30.682Z" transform="translate(3.581 13.25)" fill="#5b44ff"/>
    <path id="Path_20" data-name="Path 20" d="M12.832,42.07a3.243,3.243,0,1,0-3.971-2.293A3.243,3.243,0,0,0,12.832,42.07Z" transform="translate(3.581 20.328)" fill="#5b44ff"/>
    <path id="Path_21" data-name="Path 21" d="M11.382,45.865a3.243,3.243,0,1,0,1.187-4.43A3.243,3.243,0,0,0,11.382,45.865Z" transform="translate(4.947 23.626)" fill="#5b44ff"/>
    <path id="Path_22" data-name="Path 22" d="M23.865,49.487a3.243,3.243,0,1,0,1.187,4.432A3.243,3.243,0,0,0,23.865,49.487Z" transform="translate(9.952 28.63)" fill="#5b44ff"/>
    <path id="Path_23" data-name="Path 23" d="M28.389,51.361a3.243,3.243,0,1,0,2.293,3.973A3.243,3.243,0,0,0,28.389,51.361Z" transform="translate(13.25 29.996)" fill="#5b44ff"/>
    <path id="Path_24" data-name="Path 24" d="M38.1,51.361a3.243,3.243,0,1,0,3.973,2.294A3.243,3.243,0,0,0,38.1,51.361Z" transform="translate(20.328 29.996)" fill="#5b44ff"/>
    <path id="Path_25" data-name="Path 25" d="M42.622,49.487a3.243,3.243,0,1,0,4.43,1.189A3.243,3.243,0,0,0,42.622,49.487Z" transform="translate(23.625 28.63)" fill="#5b44ff"/>
    <path id="Path_26" data-name="Path 26" d="M53.918,41.435a3.243,3.243,0,1,0,1.187,4.43,3.243,3.243,0,0,0-1.187-4.43Z" transform="translate(28.631 23.626)" fill="#5b44ff"/>
    <path id="Path_27" data-name="Path 27" d="M55.333,35.8a3.243,3.243,0,1,0,2.293,3.973A3.243,3.243,0,0,0,55.333,35.8Z" transform="translate(29.996 20.328)" fill="#5b44ff"/>
    <path id="Path_28" data-name="Path 28" d="M53.655,24.417a3.243,3.243,0,1,0,3.971,2.293A3.243,3.243,0,0,0,53.655,24.417Z" transform="translate(29.996 13.25)" fill="#5b44ff"/>
    <path id="Path_29" data-name="Path 29" d="M55.1,20.622a3.243,3.243,0,1,0-1.187,4.43A3.243,3.243,0,0,0,55.1,20.622Z" transform="translate(28.631 9.952)" fill="#5b44ff"/>
    <path id="Path_30" data-name="Path 30" d="M42.622,17a3.243,3.243,0,1,0-1.187-4.432A3.243,3.243,0,0,0,42.622,17Z" transform="translate(23.625 4.947)" fill="#5b44ff"/>
    <path id="Path_31" data-name="Path 31" d="M38.1,15.125A3.243,3.243,0,1,0,35.8,11.154,3.243,3.243,0,0,0,38.1,15.125Z" transform="translate(20.328 3.581)" fill="#5b44ff"/>
  </g>
</svg>
