<svg xmlns="http://www.w3.org/2000/svg" width="62.358" height="62.371" viewBox="0 0 62.358 62.371">
  <g id="noun_coronavirus_3177964" transform="translate(-2.988 -2.988)">
    <path id="Path_7" data-name="Path 7" d="M33.3,12.707V9.253a3.225,3.225,0,1,0-2.15,0v3.455c.355-.021.72-.032,1.075-.032S32.945,12.686,33.3,12.707Z" transform="translate(1.948)" fill="#565656"/>
    <path id="Path_8" data-name="Path 8" d="M19.177,17.66l-2.428-2.44a3.178,3.178,0,0,0,.316-1.368,3.225,3.225,0,1,0-3.225,3.225,3.171,3.171,0,0,0,1.389-.322l2.432,2.422a20.162,20.162,0,0,1,1.516-1.516Z" transform="translate(0.571 0.572)" fill="#565656"/>
    <path id="Path_9" data-name="Path 9" d="M12.707,31.15H9.253a3.225,3.225,0,1,0,0,2.15h3.455c-.021-.355-.032-.72-.032-1.075S12.686,31.5,12.707,31.15Z" transform="translate(0 1.948)" fill="#565656"/>
    <path id="Path_10" data-name="Path 10" d="M17.666,45.42l-2.452,2.443a3.262,3.262,0,1,0,1.529,1.52l2.439-2.448a20.16,20.16,0,0,1-1.516-1.516Z" transform="translate(0.566 3.178)" fill="#565656"/>
    <path id="Path_11" data-name="Path 11" d="M31.15,51.97v3.455a3.225,3.225,0,1,0,2.15,0V51.97c-.355.021-.72.032-1.075.032S31.5,51.992,31.15,51.97Z" transform="translate(1.948 3.669)" fill="#565656"/>
    <path id="Path_12" data-name="Path 12" d="M45.42,46.936l2.439,2.448a3.192,3.192,0,0,0-.322,1.389,3.255,3.255,0,1,0,1.855-2.909L46.936,45.42A20.158,20.158,0,0,1,45.42,46.936Z" transform="translate(3.178 3.178)" fill="#565656"/>
    <path id="Path_13" data-name="Path 13" d="M58.452,29a3.225,3.225,0,0,0-3.027,2.15H51.97c.021.355.032.72.032,1.075s-.011.72-.032,1.075h3.455A3.219,3.219,0,1,0,58.452,29Z" transform="translate(3.669 1.948)" fill="#565656"/>
    <path id="Path_14" data-name="Path 14" d="M46.936,19.176l2.432-2.424a3.171,3.171,0,0,0,1.389.322,3.225,3.225,0,1,0-3.225-3.225,3.178,3.178,0,0,0,.316,1.368L45.42,17.66a20.158,20.158,0,0,1,1.516,1.516Z" transform="translate(3.178 0.572)" fill="#565656"/>
    <path id="Path_15" data-name="Path 15" d="M50.694,32.421h4.267a21.412,21.412,0,0,0-5.525-13.35l-3.02,3.02L44.9,20.575l3.02-3.02a21.412,21.412,0,0,0-13.35-5.525V16.3h-2.15V12.03a21.412,21.412,0,0,0-13.35,5.525l3.02,3.02-1.516,1.516-3.02-3.02a21.412,21.412,0,0,0-5.525,13.35H16.3v2.15H12.03a21.412,21.412,0,0,0,5.525,13.35l3.02-3.02,1.516,1.516-3.02,3.02a21.412,21.412,0,0,0,13.35,5.525V50.694h2.15v4.267a21.412,21.412,0,0,0,13.35-5.525l-3.02-3.02L46.416,44.9l3.02,3.02a21.412,21.412,0,0,0,5.525-13.35H50.694Zm-8.965-6.161a2.15,2.15,0,1,1-.787,2.937,2.15,2.15,0,0,1,.787-2.937Zm-4.721-3.147a2.15,2.15,0,1,1,.787,2.937,2.15,2.15,0,0,1-.787-2.937ZM22.325,27.046a2.15,2.15,0,1,1,.787,2.937,2.15,2.15,0,0,1-.787-2.937ZM20.6,33.5a2.15,2.15,0,1,1,2.15,2.15A2.15,2.15,0,0,1,20.6,33.5Zm4.665,7.236a2.15,2.15,0,1,1,.787-2.937A2.15,2.15,0,0,1,25.262,40.732Zm4.721,3.147a2.15,2.15,0,1,1-.787-2.937A2.15,2.15,0,0,1,29.983,43.879ZM29.2,26.049a2.15,2.15,0,1,1,.787-2.937A2.15,2.15,0,0,1,29.2,26.049Zm4.3,20.346a2.15,2.15,0,1,1,2.15-2.15A2.15,2.15,0,0,1,33.5,46.394Zm0-21.5a2.15,2.15,0,1,1,2.15-2.15A2.15,2.15,0,0,1,33.5,24.9Zm6.449,19.769a2.15,2.15,0,1,1,.787-2.937A2.15,2.15,0,0,1,39.945,44.666Zm4.721-4.721a2.15,2.15,0,1,1-.787-2.937A2.15,2.15,0,0,1,44.666,39.945Zm-.421-4.3a2.15,2.15,0,1,1,2.15-2.15A2.15,2.15,0,0,1,44.245,35.645Z" transform="translate(0.677 0.677)" fill="#565656"/>
    <path id="Path_16" data-name="Path 16" d="M27.013,12.976a2.15,2.15,0,1,0-2.633-1.52A2.15,2.15,0,0,0,27.013,12.976Z" transform="translate(1.597 0.431)" fill="#565656"/>
    <path id="Path_17" data-name="Path 17" d="M22.225,14.96a2.15,2.15,0,1,0-2.937-.788A2.15,2.15,0,0,0,22.225,14.96Z" transform="translate(1.199 0.596)" fill="#565656"/>
    <path id="Path_18" data-name="Path 18" d="M12.022,23.012a2.15,2.15,0,1,0-.787-2.937A2.15,2.15,0,0,0,12.022,23.012Z" transform="translate(0.596 1.199)" fill="#565656"/>
    <path id="Path_19" data-name="Path 19" d="M10.343,28.533A2.15,2.15,0,1,0,8.823,25.9,2.15,2.15,0,0,0,10.343,28.533Z" transform="translate(0.432 1.597)" fill="#565656"/>
    <path id="Path_20" data-name="Path 20" d="M11.456,39.921A2.15,2.15,0,1,0,8.823,38.4,2.15,2.15,0,0,0,11.456,39.921Z" transform="translate(0.432 2.45)" fill="#565656"/>
    <path id="Path_21" data-name="Path 21" d="M11.235,44.225a2.15,2.15,0,1,0,.787-2.937A2.15,2.15,0,0,0,11.235,44.225Z" transform="translate(0.596 2.847)" fill="#565656"/>
    <path id="Path_22" data-name="Path 22" d="M22.225,49.34a2.15,2.15,0,1,0,.787,2.938A2.15,2.15,0,0,0,22.225,49.34Z" transform="translate(1.199 3.45)" fill="#565656"/>
    <path id="Path_23" data-name="Path 23" d="M27.013,51.323a2.15,2.15,0,1,0,1.52,2.633A2.15,2.15,0,0,0,27.013,51.323Z" transform="translate(1.597 3.615)" fill="#565656"/>
    <path id="Path_24" data-name="Path 24" d="M37.287,51.323a2.15,2.15,0,1,0,2.633,1.521A2.15,2.15,0,0,0,37.287,51.323Z" transform="translate(2.45 3.615)" fill="#565656"/>
    <path id="Path_25" data-name="Path 25" d="M42.075,49.34a2.15,2.15,0,1,0,2.937.788A2.15,2.15,0,0,0,42.075,49.34Z" transform="translate(2.847 3.45)" fill="#565656"/>
    <path id="Path_26" data-name="Path 26" d="M52.278,41.288a2.15,2.15,0,1,0,.787,2.937,2.15,2.15,0,0,0-.787-2.937Z" transform="translate(3.45 2.847)" fill="#565656"/>
    <path id="Path_27" data-name="Path 27" d="M53.957,35.767a2.15,2.15,0,1,0,1.52,2.633A2.15,2.15,0,0,0,53.957,35.767Z" transform="translate(3.615 2.449)" fill="#565656"/>
    <path id="Path_28" data-name="Path 28" d="M52.844,24.379a2.15,2.15,0,1,0,2.632,1.52A2.15,2.15,0,0,0,52.844,24.379Z" transform="translate(3.615 1.597)" fill="#565656"/>
    <path id="Path_29" data-name="Path 29" d="M53.065,20.075a2.15,2.15,0,1,0-.787,2.937A2.15,2.15,0,0,0,53.065,20.075Z" transform="translate(3.45 1.199)" fill="#565656"/>
    <path id="Path_30" data-name="Path 30" d="M42.075,14.96a2.15,2.15,0,1,0-.787-2.938A2.15,2.15,0,0,0,42.075,14.96Z" transform="translate(2.847 0.596)" fill="#565656"/>
    <path id="Path_31" data-name="Path 31" d="M37.287,12.976a2.15,2.15,0,1,0-1.52-2.632A2.15,2.15,0,0,0,37.287,12.976Z" transform="translate(2.45 0.431)" fill="#565656"/>
  </g>
</svg>
