<svg xmlns="http://www.w3.org/2000/svg" xmlns:xlink="http://www.w3.org/1999/xlink" width="65.548" height="65.549" viewBox="0 0 65.548 65.549">
  <defs>
    <filter id="Path_36" x="0" y="0" width="65.548" height="65.549" filterUnits="userSpaceOnUse">
      <feOffset input="SourceAlpha"/>
      <feGaussianBlur stdDeviation="7.5" result="blur"/>
      <feFlood flood-color="#ffe644" flood-opacity="0.278"/>
      <feComposite operator="in" in2="blur"/>
      <feComposite in="SourceGraphic"/>
    </filter>
  </defs>
  <g id="Group_23" data-name="Group 23" transform="translate(-1287.309 -408.951)">
    <circle id="Ellipse_6" data-name="Ellipse 6" cx="22" cy="22" r="22" transform="translate(1298 420)" fill="#ffe644" opacity="0.1"/>
    <g id="bxs-alarm-exclamation" transform="translate(1309 429.5)">
      <g transform="matrix(1, 0, 0, 1, -21.69, -20.55)" filter="url(#Path_36)">
        <path id="Path_36-2" data-name="Path 36" d="M13.274,4A10.411,10.411,0,0,0,3,14.274,10.411,10.411,0,0,0,13.274,24.549,10.411,10.411,0,0,0,23.549,14.274,10.411,10.411,0,0,0,13.274,4Zm1.142,15.982H12.133V17.7h2.283Zm0-4.566H12.133V8.566h2.283Z" transform="translate(19.5 18.5)" fill="#ffe644"/>
      </g>
    </g>
  </g>
</svg>
